<svg width="200" height="200" viewBox="0 0 139 139" fill="none" xmlns="http://www.w3.org/2000/svg">
<path fill-rule="evenodd" clip-rule="evenodd" d="M64.9999 5.10443V26.2411C64.9999 29.0025 67.2385 31.2411 69.9999 31.2411C72.7614 31.2411 74.9999 29.0025 74.9999 26.2411V5.10443C74.9999 2.34301 72.7614 0.104431 69.9999 0.104431C67.2385 0.104431 64.9999 2.34301 64.9999 5.10443ZM69.4999 102C87.4492 102 102 87.4493 102 69.5C102 51.5507 87.4492 37 69.4999 37C51.5507 37 36.9999 51.5507 36.9999 69.5C36.9999 87.4493 51.5507 102 69.4999 102ZM5.10437 73H26.241C29.0024 73 31.241 70.7614 31.241 68C31.241 65.2386 29.0024 63 26.241 63H5.10437C2.34295 63 0.10437 65.2386 0.10437 68C0.10437 70.7614 2.34295 73 5.10437 73ZM134 73H112.863C110.102 73 107.863 70.7614 107.863 68C107.863 65.2386 110.102 63 112.863 63H134C136.761 63 139 65.2386 139 68C139 70.7614 136.761 73 134 73ZM64.9999 134V112.863C64.9999 110.102 67.2385 107.863 69.9999 107.863C72.7614 107.863 74.9999 110.102 74.9999 112.863V134C74.9999 136.761 72.7614 139 69.9999 139C67.2385 139 64.9999 136.761 64.9999 134ZM20.7834 27.1474L35.7293 42.0933C37.6819 44.0459 40.8477 44.0459 42.8003 42.0933C44.753 40.1407 44.753 36.9748 42.8003 35.0222L27.8545 20.0764C25.9019 18.1237 22.736 18.1237 20.7834 20.0764C18.8308 22.029 18.8308 25.1948 20.7834 27.1474ZM111.926 118.29L96.9805 103.345C95.0279 101.392 95.0279 98.2261 96.9805 96.2734C98.9331 94.3208 102.099 94.3208 104.052 96.2734L118.997 111.219C120.95 113.172 120.95 116.338 118.997 118.29C117.045 120.243 113.879 120.243 111.926 118.29ZM110.853 20.7835L95.9066 35.7293C93.954 37.682 93.954 40.8478 95.9066 42.8004C97.8593 44.753 101.025 44.753 102.978 42.8004L117.924 27.8545C119.876 25.9019 119.876 22.7361 117.924 20.7835C115.971 18.8309 112.805 18.8309 110.853 20.7835ZM19.7096 111.926L34.6554 96.9806C36.6081 95.0279 39.7739 95.0279 41.7265 96.9806C43.6791 98.9332 43.6791 102.099 41.7265 104.052L26.7806 118.997C24.828 120.95 21.6622 120.95 19.7096 118.997C17.757 117.045 17.757 113.879 19.7096 111.926Z" fill="url(#paint0_linear)"/>
<defs>
<linearGradient id="paint0_linear" x1="0.10437" y1="0.104431" x2="0.10437" y2="139" gradientUnits="userSpaceOnUse">
<stop stop-color="#FFFCC9"/>
<stop offset="1" stop-color="#FFF799"/>
</linearGradient>
</defs>
</svg>
